<svg xmlns="http://www.w3.org/2000/svg" viewBox="0 0 1200 630" role="img" aria-labelledby="title desc">
  <title id="title">Bunker 4 | Infraestructura clásica y avanzada</title>
  <desc id="desc">Vista previa social con estética de cubierta de cuero antiguo para Bunker 4.</desc>
  <defs>
    <radialGradient id="warmLight" cx="50%" cy="16%" r="76%">
      <stop offset="0" stop-color="#754420" />
      <stop offset="0.46" stop-color="#2d190f" />
      <stop offset="1" stop-color="#100b08" />
    </radialGradient>
    <linearGradient id="brass" x1="210" y1="120" x2="990" y2="540">
      <stop offset="0" stop-color="#f1c27a" />
      <stop offset="0.5" stop-color="#d6a35d" />
      <stop offset="1" stop-color="#8f5d2b" />
    </linearGradient>
    <pattern id="grain" width="24" height="24" patternUnits="userSpaceOnUse">
      <path d="M0 4h24M0 13h24M0 22h24" stroke="#f5dec0" stroke-opacity="0.035" stroke-width="1" />
      <path d="M5 0v24M17 0v24" stroke="#000" stroke-opacity="0.09" stroke-width="1" />
    </pattern>
    <filter id="pressed" x="-20%" y="-20%" width="140%" height="140%">
      <feDropShadow dx="0" dy="8" stdDeviation="10" flood-color="#000" flood-opacity="0.45" />
    </filter>
  </defs>

  <rect width="1200" height="630" fill="url(#warmLight)" />
  <rect width="1200" height="630" fill="url(#grain)" />
  <rect x="52" y="44" width="1096" height="542" rx="34" fill="none" stroke="#d6a35d" stroke-opacity="0.42" stroke-width="4" />
  <rect x="86" y="78" width="1028" height="474" rx="24" fill="none" stroke="#f1c27a" stroke-opacity="0.16" stroke-width="2" />
  <path d="M144 116h912M144 514h912M120 140v350M1080 140v350" stroke="#f1c27a" stroke-opacity="0.12" stroke-width="3" />
  <circle cx="142" cy="120" r="18" fill="none" stroke="#d6a35d" stroke-opacity="0.32" stroke-width="3" />
  <circle cx="1058" cy="120" r="18" fill="none" stroke="#d6a35d" stroke-opacity="0.32" stroke-width="3" />
  <circle cx="142" cy="510" r="18" fill="none" stroke="#d6a35d" stroke-opacity="0.32" stroke-width="3" />
  <circle cx="1058" cy="510" r="18" fill="none" stroke="#d6a35d" stroke-opacity="0.32" stroke-width="3" />

  <g filter="url(#pressed)">
    <text x="600" y="194" fill="#d2c0a3" font-family="Segoe UI, Arial, sans-serif" font-size="30" letter-spacing="8" text-anchor="middle">TALLER ABIERTO, GRATUITO, SIN TRAMPAS</text>
    <text x="600" y="324" fill="url(#brass)" font-family="Georgia, 'Times New Roman', serif" font-size="132" font-weight="700" text-anchor="middle">Bunker 4</text>
    <text x="600" y="394" fill="#f2e6d0" font-family="Segoe UI, Arial, sans-serif" font-size="42" font-weight="600" text-anchor="middle">Infraestructura de Software</text>
    <text x="600" y="462" fill="#d2c0a3" font-family="Segoe UI, Arial, sans-serif" font-size="30" text-anchor="middle">Linux · VPS · Contenedores · Automatizacion · Observabilidad</text>
  </g>
</svg>
